<svg xmlns="http://www.w3.org/2000/svg" xmlns:xlink="http://www.w3.org/1999/xlink" viewBox="0 0 7.9 4.6"><defs><style>.cls-1{fill:none;}.cls-2{clip-path:url(#clip-path);}.cls-3{fill:#fff;}.cls-4{fill:#bd0034;}.cls-5{fill:#1a237b;}</style><clipPath id="clip-path"><rect class="cls-1" width="7.9" height="4.6"/></clipPath></defs><title>British</title><g id="Layer_2" data-name="Layer 2"><g id="flag"><g class="cls-2"><rect class="cls-3" width="7.9" height="4.6"/><polygon class="cls-4" points="5.29 1.66 7.9 0.2 7.9 0 7.72 0 4.75 1.66 5.29 1.66"/><polygon class="cls-4" points="5.17 3.02 7.9 4.56 7.9 4.26 5.71 3.02 5.17 3.02"/><polygon class="cls-4" points="0 0.34 2.34 1.66 2.88 1.66 0 0.04 0 0.34"/><polygon class="cls-4" points="2.75 3.02 0 4.58 0 4.6 0.5 4.6 3.3 3.02 2.75 3.02"/><polygon class="cls-5" points="7.36 0 4.6 0 4.6 1.54 7.36 0"/><polygon class="cls-5" points="3.38 0 0.61 0 3.38 1.54 3.38 0"/><polygon class="cls-5" points="7.9 1.66 7.9 0.6 6.02 1.66 7.9 1.66"/><polygon class="cls-5" points="7.9 4.06 7.9 3.02 6.02 3.02 7.9 4.06"/><polygon class="cls-5" points="0.78 4.6 3.38 4.6 3.38 3.16 0.78 4.6"/><polygon class="cls-5" points="4.6 4.6 7.2 4.6 4.6 3.16 4.6 4.6"/><polygon class="cls-5" points="0 3.02 0 4.12 1.94 3.02 0 3.02"/><polygon class="cls-5" points="0 1.66 1.94 1.66 0 0.56 0 1.66"/><polygon class="cls-4" points="3.62 0 3.62 1.94 0 1.94 0 2.76 3.62 2.76 3.62 4.6 4.35 4.6 4.35 2.76 7.9 2.76 7.9 1.94 4.35 1.94 4.35 0 3.62 0"/></g></g></g></svg>